<?xml version="1.0" standalone="no"?>
<!DOCTYPE svg PUBLIC "-//W3C//DTD SVG 20010904//EN"
 "http://www.w3.org/TR/2001/REC-SVG-20010904/DTD/svg10.dtd">
<svg version="1.0" xmlns="http://www.w3.org/2000/svg"
 width="1000.000000pt" height="1000.000000pt" viewBox="0 0 1000.000000 1000.000000"
 preserveAspectRatio="xMidYMid meet">

<g transform="translate(0.000000,1000.000000) scale(0.100000,-0.100000)"
fill="#000000" stroke="none">
<path d="M7680 5503 c0 -4 9 -23 20 -41 20 -33 70 -170 70 -191 0 -7 -22 -11
-53 -11 -52 0 -53 1 -71 40 -9 21 -37 57 -62 79 -46 41 -156 91 -199 91 -35 0
-41 -18 -8 -26 91 -22 201 -93 235 -151 l17 -29 -92 -12 c-203 -28 -426 -106
-393 -139 2 -2 57 14 122 36 105 35 202 57 327 75 36 5 37 4 37 -28 0 -89 -65
-193 -216 -346 -73 -73 -109 -117 -102 -121 16 -10 66 31 159 128 119 125 173
213 191 314 l10 60 52 -3 51 -3 3 -85 c5 -127 -37 -341 -93 -472 -5 -13 -3
-18 9 -18 22 0 43 45 77 173 26 93 32 137 36 260 5 133 7 147 24 147 35 0 69
-19 69 -40 0 -27 56 -197 79 -240 17 -30 20 -32 27 -17 4 11 -4 46 -21 88 -25
64 -55 163 -55 183 0 5 18 6 40 2 22 -3 40 -3 40 1 -1 19 -17 31 -52 37 -39 7
-40 9 -54 108 -3 26 -13 53 -22 60 -14 12 -15 4 -8 -69 l6 -83 -38 0 -38 0
-12 59 c-15 73 -71 185 -94 189 -10 2 -18 0 -18 -5z"/>
<path d="M1340 5410 c-94 -10 -153 -25 -211 -56 -122 -67 -143 -232 -42 -331
l45 -43 -62 0 -63 0 6 -57 c9 -84 43 -142 106 -180 71 -43 129 -54 298 -60
219 -8 357 19 426 85 l27 26 0 -52 0 -52 155 0 155 0 0 75 0 75 145 0 c170 0
232 17 296 81 24 24 41 35 43 27 55 -192 179 -268 436 -268 174 0 295 40 364
121 l36 43 0 -77 0 -77 155 0 155 0 0 75 0 75 48 0 48 0 43 -75 43 -75 184 0
184 0 -64 103 -63 102 37 42 c35 40 60 98 60 141 0 50 5 52 126 52 l114 0 0
-220 0 -220 155 0 155 0 0 220 0 220 120 0 120 0 0 -220 0 -220 155 0 155 0 0
220 0 220 120 0 120 0 0 -220 0 -220 155 0 155 0 0 220 0 220 120 0 120 0 0
-220 0 -220 155 0 155 0 0 75 0 75 138 0 c96 0 154 5 190 15 172 51 244 276
139 432 -40 60 -106 101 -182 113 -37 6 -540 10 -1292 10 l-1233 0 0 -60 0
-61 -35 35 c-77 78 -135 88 -485 84 l-265 -3 -5 -78 -5 -77 -19 27 c-69 102
-264 158 -465 134 -149 -18 -239 -61 -292 -138 l-32 -46 -18 35 c-24 46 -97
111 -146 128 -28 10 -121 14 -345 17 l-308 5 0 -84 c-1 -66 -3 -79 -12 -63
-19 35 -62 76 -100 96 -82 42 -271 64 -418 49z m281 -44 c88 -16 146 -43 182
-86 22 -26 47 -85 47 -112 0 -5 -52 -8 -115 -8 -93 0 -121 3 -142 18 -37 24
-278 26 -293 2 -19 -31 12 -39 191 -50 309 -18 383 -57 382 -201 -1 -110 -61
-170 -198 -200 -75 -16 -361 -16 -428 0 -122 29 -184 86 -195 176 l-5 45 117
0 c93 0 118 -3 122 -15 10 -26 76 -38 202 -38 101 0 126 3 140 17 15 15 15 17
0 32 -12 13 -50 18 -171 25 -308 17 -397 62 -397 199 0 75 24 116 88 153 94
52 309 72 473 43z m1630 0 c121 -26 184 -72 228 -165 22 -49 25 -69 25 -156 0
-113 -20 -174 -76 -232 -73 -75 -250 -116 -417 -94 -113 14 -173 36 -226 83
-64 57 -89 122 -89 238 -1 147 39 233 133 284 98 53 283 71 422 42z m-716 -23
c85 -46 127 -118 128 -220 1 -88 -39 -166 -107 -208 l-49 -30 -179 -3 -178 -3
0 -80 0 -79 -120 0 -120 0 0 326 0 325 293 -3 c277 -3 294 -4 332 -25z m1607
11 c161 -54 210 -285 87 -408 -22 -21 -38 -45 -35 -52 2 -6 27 -48 55 -93 l51
-81 -142 0 -143 0 -45 78 -45 77 -72 3 -73 3 0 -81 0 -80 -120 0 -120 0 0 325
0 325 278 0 c226 0 287 -3 324 -16z m978 -84 l0 -100 -140 0 -140 0 0 -225 0
-225 -120 0 -120 0 0 225 0 225 -140 0 -140 0 0 100 0 100 400 0 400 0 0 -100z
m270 -225 l0 -325 -120 0 -120 0 0 325 0 325 120 0 120 0 0 -325z m830 225 l0
-100 -140 0 -140 0 0 -225 0 -225 -120 0 -120 0 0 225 0 225 -140 0 -140 0 0
100 0 100 400 0 400 0 0 -100z m676 65 c128 -80 153 -266 51 -382 -55 -62 -73
-67 -272 -73 l-180 -5 -3 -77 -3 -78 -119 0 -120 0 0 326 0 325 298 -3 299 -3
49 -30z m-5026 -240 l0 -26 -30 23 c-16 12 -30 23 -30 25 0 2 14 3 30 3 25 0
30 -4 30 -25z"/>
<path d="M3013 5169 c-49 -14 -83 -62 -83 -115 0 -98 50 -138 170 -138 124 0
177 46 168 146 -6 58 -35 93 -87 108 -44 12 -124 12 -168 -1z m191 -50 c21
-17 26 -29 26 -65 0 -58 -12 -79 -51 -93 -69 -24 -179 -8 -199 29 -6 10 -10
39 -10 64 0 67 29 86 130 86 63 0 82 -4 104 -21z"/>
<path d="M2150 5125 l0 -45 128 0 c134 0 152 5 152 45 0 40 -18 45 -152 45
l-128 0 0 -45z m240 -5 c0 -6 -42 -10 -105 -10 -63 0 -105 4 -105 10 0 6 42
10 105 10 63 0 105 -4 105 -10z"/>
<path d="M3780 5125 l0 -46 138 3 137 3 3 28 c6 52 -8 57 -149 57 l-129 0 0
-45z m245 -5 c-3 -6 -52 -10 -111 -10 -63 0 -104 4 -104 10 0 6 44 10 111 10
71 0 108 -4 104 -10z"/>
<path d="M6490 5125 l0 -46 138 3 137 3 3 34 c2 20 -2 37 -10 42 -7 5 -70 9
-140 9 l-128 0 0 -45z m250 -5 c0 -6 -42 -10 -105 -10 -63 0 -105 4 -105 10 0
6 42 10 105 10 63 0 105 -4 105 -10z"/>
<path d="M8130 5050 l0 -361 308 3 c289 3 310 4 353 24 104 48 168 136 190
259 30 176 -55 349 -201 407 -51 21 -75 22 -352 26 l-298 4 0 -362z m651 294
c58 -27 110 -79 140 -140 21 -42 24 -63 24 -154 0 -88 -4 -113 -23 -155 -30
-65 -83 -118 -146 -147 -49 -22 -64 -23 -328 -26 l-278 -3 0 326 0 326 283 -3
c263 -3 285 -4 328 -24z"/>
<path d="M8402 5048 l3 -123 116 0 c129 0 160 10 180 56 6 16 11 49 11 74 -2
96 -36 115 -197 115 l-116 0 3 -122z m252 69 c11 -8 20 -31 23 -59 5 -40 2
-50 -20 -72 -24 -24 -32 -26 -122 -26 l-95 0 0 85 0 85 98 0 c65 0 104 -4 116
-13z"/>
</g>
</svg>
